# xmcd
#
# Track frame offsets: 
#        150
#        23510
#        43526
#        63507
#        80368
#        99511
#        123992
#        146541
#        166332
#        186836
#        209414
#        232565
#        253323
#        274435
#        296711
#
# Disc length: 4259 seconds
#
# Revision: 2
# Processed by: cddbd v1.5.2PL0 Copyright (c) Steve Scherf et al.
# Submitted via: ExactAudioCopyFreeDBPlugin 1.0
#
DISCID=d410a10f
DTITLE=楊洋 - 愛是永恆
DYEAR=2008
DGENRE=Pop-Folk
TTITLE0=太委屈
TTITLE1=從開始到現在
TTITLE2=愛是永恆
TTITLE3=吻
TTITLE4=愛無止境
TTITLE5=天下無雙
TTITLE6=再見了最愛的人
TTITLE7=在他鄉
TTITLE8=祝你幸福
TTITLE9=I Believe
TTITLE10=第一次
TTITLE11=玻璃杯
TTITLE12=痴心絕對
TTITLE13=一生有你
TTITLE14=你一定要幸福
EXTD=
EXTT0=
EXTT1=
EXTT2=
EXTT3=
EXTT4=
EXTT5=
EXTT6=
EXTT7=
EXTT8=
EXTT9=
EXTT10=
EXTT11=
EXTT12=
EXTT13=
EXTT14=
PLAYORDER=
